# xmcd
#
# Track frame offsets:
#	150
#	25201
#	47586
#	72367
#	98151
#	122897
#	146947
#	171618
#	194647
#	218014
#
# Disc length: 3156 seconds
#
# Revision: 0
# Processed by: cddbd v1.5.2PL0 Copyright (c) Steve Scherf et al.
# Submitted via: EZCDAudioConverter 8.0.2.1
#
DISCID=9e0c520a
DTITLE=Various Artist - Khúc Thụy Du
DYEAR=2005
DGENRE=World Pop
TTITLE0=Lan, Quynh - Đừng xa em đem nay
TTITLE1=Xuân Phú - Khúc Thụy Du
TTITLE2=Quang Minh - Thu ca
TTITLE3=Elvis Phương - Niệm khúc cuối
TTITLE4=Mai Hau - Tóc mây
TTITLE5=Xuân Phú - Xin còn gọi tên nhau
TTITLE6=Quang Minh - Suối tóc
TTITLE7=Nhóm AC&M - Một tình yêu
TTITLE8=Khắc Dũng - Rồi mai tôi đưa em
TTITLE9=Nhóm 5 Dòng Kẻ - Sài Gòn
EXTD=
EXTT0=
EXTT1=
EXTT2=
EXTT3=
EXTT4=
EXTT5=
EXTT6=
EXTT7=
EXTT8=
EXTT9=
PLAYORDER=
